<svg xmlns="http://www.w3.org/2000/svg" viewBox="0 0 363.89 127.5"><defs><style>.cls-1{fill:#222;}.cls-2{fill:#ff6f31;}</style></defs><g id="Layer_2" data-name="Layer 2"><g id="assets"><g id="go-bicycles-logo-2c"><path class="cls-1" d="M4,101.87h6.84c4.28,0,7.16,2.52,7.16,6.48a5.73,5.73,0,0,1-3,5.43,6.42,6.42,0,0,1,4.36,6.45c0,4-2.77,6.83-7.63,6.83H4Zm7.16,11.37c3.42,0,4.9-2.16,4.9-4.89s-1.95-4.75-5.4-4.75H5.87v9.64Zm.4,12.1c4.43,0,5.87-2.63,5.87-5.11A5,5,0,0,0,12.06,115H5.87v10.37Z"/><path class="cls-1" d="M54.58,101.87h1.87v25.19H54.58Z"/><path class="cls-1" d="M112.43,122l1.3,1.29a12.17,12.17,0,0,1-9.33,4.18c-7.27,0-12.45-5.76-12.45-13s5.18-13,12.45-13a12,12,0,0,1,9,3.85L112,106.51a10.14,10.14,0,0,0-7.63-3.24c-6.26,0-10.51,5-10.51,11.2s4.25,11.19,10.51,11.19A10.43,10.43,0,0,0,112.43,122Z"/><path class="cls-1" d="M154.12,117.17l-8.71-15.3h2.16l7.52,13.39,7.52-13.39h2.09L156,117.17v9.89h-1.87Z"/><path class="cls-1" d="M216.79,122l1.3,1.29a12.16,12.16,0,0,1-9.32,4.18c-7.27,0-12.46-5.76-12.46-13s5.19-13,12.46-13a12,12,0,0,1,9,3.85l-1.33,1.22a10.16,10.16,0,0,0-7.63-3.24c-6.27,0-10.52,5-10.52,11.2s4.25,11.19,10.52,11.19A10.43,10.43,0,0,0,216.79,122Z"/><path class="cls-1" d="M252.36,101.87h1.88v23.47h12v1.72h-13.9Z"/><path class="cls-1" d="M302,113.28h11.23V115H302v10.33h12.31v1.72H300.17V101.87h14v1.73H302Z"/><path class="cls-1" d="M356.33,115.08c-3.71-1.62-6.77-3.57-6.77-7.38,0-2.84,2.31-6.26,7-6.26a8.6,8.6,0,0,1,6.84,3.63L362,106.19a6.64,6.64,0,0,0-5.36-2.92c-3.17,0-5.19,1.91-5.19,4.43,0,3.09,2.85,4.46,6.45,6,3.85,1.69,6,3.63,6,7,0,4.06-3.31,6.73-7.52,6.73-5.55,0-7.82-5.15-7.82-5.15l1.7-1s1.65,4.32,6.12,4.32c3.13,0,5.65-1.87,5.65-4.89S359.28,116.37,356.33,115.08Z"/><g id="Go-Bicycles_-1c-LOGO" data-name="Go-Bicycles -1c-LOGO"><path class="cls-2" d="M150.33,77.7h169L306.22,65H161.53A59,59,0,0,1,150.33,77.7Z"/><path class="cls-2" d="M285.52,58.89,272.4,46.14h-103A56.14,56.14,0,0,1,165,58.89Z"/><path class="cls-2" d="M170.38,40.08H251.7L238.58,27.33H170.21a55.66,55.66,0,0,1,.46,7.15A54.53,54.53,0,0,1,170.38,40.08Z"/><path class="cls-1" d="M36,79A55.93,55.93,0,0,0,63.4,71.69L70,34.7H39.72L37.54,46.92H54.89l-3,16.7s-5,3.16-15.93,3.16c-14.08,0-22.48-9.82-22.48-22.37,0-17,12.88-32.19,31.54-32.19,13,0,19.42,7.75,19.42,7.75l9.06-8.51S65.47,0,45.07,0C20.62,0,0,19.31,0,44.41,0,63.84,12.66,79,36,79Z"/><path class="cls-1" d="M114.46,79c24.12,0,44.09-20.74,44.09-44.53C158.55,15.28,146.44,0,124.07,0,100.06,0,80,20.73,80,44.41,80,63.62,92.09,79,114.46,79Zm9.61-66.57c13.42,0,21.06,9.93,21.06,22,0,15.72-12.33,32.08-30.67,32.08-13.42,0-21.06-10-21.06-22.15C93.4,28.7,105.73,12.44,124.07,12.44Z"/></g></g></g></g></svg>