<svg xmlns="http://www.w3.org/2000/svg" viewBox="0 0 242.52 60"><defs><style>.cls-1{fill:#ff6f31;}.cls-2{fill:#222;}</style></defs><g id="Layer_2" data-name="Layer 2"><g id="Layer_5" data-name="Layer 5"><g id="go-bicycles-wordmark-2c"><path class="cls-1" d="M114.17,59H242.52l-10-9.68H122.67A44.61,44.61,0,0,1,114.17,59Z"/><path class="cls-1" d="M216.84,44.72l-10-9.68H128.66a42.54,42.54,0,0,1-3.37,9.68Z"/><path class="cls-1" d="M129.4,30.44h61.75l-10-9.68H129.27a43.49,43.49,0,0,1,.34,5.43C129.61,27.62,129.54,29,129.4,30.44Z"/><path class="cls-2" d="M27.35,60a42.54,42.54,0,0,0,20.8-5.55l5-28.1H30.17l-1.66,9.29H41.68L39.45,48.32s-3.82,2.4-12.1,2.4c-10.69,0-17.07-7.46-17.07-17,0-12.93,9.77-24.45,23.95-24.45C44.09,9.28,49,15.17,49,15.17L55.86,8.7S49.72,0,34.23,0C15.66,0,0,14.67,0,33.73,0,48.48,9.61,60,27.35,60Z"/><path class="cls-2" d="M86.93,60c18.31,0,33.48-15.75,33.48-33.81C120.41,11.6,111.21,0,94.22,0,76,0,60.74,15.75,60.74,33.73,60.74,48.32,69.94,60,86.93,60ZM94.22,9.45c10.19,0,16,7.54,16,16.74,0,11.93-9.37,24.36-23.29,24.36-10.2,0-16-7.62-16-16.82C70.93,21.8,80.3,9.45,94.22,9.45Z"/></g></g></g></svg>