<svg xmlns="http://www.w3.org/2000/svg" viewBox="0 0 400.72 162.34"><defs><style>.cls-1{font-size:68px;font-family:Europa-Regular;letter-spacing:0.2em;}.cls-1,.cls-4{fill:#222;}.cls-2{letter-spacing:0.17em;}.cls-3{fill:#ff6f31;}</style></defs><g id="Layer_2" data-name="Layer 2"><g id="Layer_5" data-name="Layer 5"><g id="go-bicycles-logo-2c"><text class="cls-1" transform="translate(0 145.06)">BIC<tspan class="cls-2" x="142.93" y="0">Y</tspan><tspan x="194.21" y="0">CLES</tspan></text><g id="Go-Bicycles_-1c-LOGO" data-name="Go-Bicycles -1c-LOGO"><path class="cls-3" d="M180.92,77.7h169L336.81,65H192.12A59,59,0,0,1,180.92,77.7Z"/><path class="cls-3" d="M316.11,58.89,303,46.14H200a56.14,56.14,0,0,1-4.43,12.75Z"/><path class="cls-3" d="M201,40.08h81.32L269.17,27.33H200.8a55.66,55.66,0,0,1,.46,7.15A54.53,54.53,0,0,1,201,40.08Z"/><path class="cls-4" d="M66.6,79A55.93,55.93,0,0,0,94,71.69l6.55-37H70.31L68.13,46.92H85.48l-3,16.7s-5,3.16-15.93,3.16c-14.08,0-22.48-9.82-22.48-22.37,0-17,12.88-32.19,31.54-32.19,13,0,19.42,7.75,19.42,7.75l9.06-8.51S96.06,0,75.66,0C51.21,0,30.59,19.31,30.59,44.41,30.59,63.84,43.25,79,66.6,79Z"/><path class="cls-4" d="M145.05,79c24.12,0,44.09-20.74,44.09-44.53C189.14,15.28,177,0,154.66,0c-24,0-44.09,20.73-44.09,44.41C110.57,63.62,122.68,79,145.05,79Zm9.61-66.57c13.42,0,21.06,9.93,21.06,22,0,15.72-12.33,32.08-30.67,32.08-13.42,0-21.06-10-21.06-22.15C124,28.7,136.32,12.44,154.66,12.44Z"/></g></g></g></g></svg>