<svg xmlns="http://www.w3.org/2000/svg" viewBox="0 0 88.18 74.32"><defs><style>.cls-1{fill:#222;}</style></defs><g id="Layer_2" data-name="Layer 2"><g id="assets"><path id="social-icon-twitter_black" class="cls-1" d="M81.93,9.87C83.45,7.36,86.32,5.72,86.55,2c-2.26.87-4.1,1.54-5.9,2.28-3,1.23-5.49.89-8.37-1C59.32-5,44,3.09,43.3,18.61c-.16,3.39-1.12,4.29-4.41,3.84C27.79,21,18.33,16.22,10,8.89,8.25,7.41,7,3.61,4.53,5s-2.15,5-2.19,7.85A19.06,19.06,0,0,0,6,24c.76,1.11,2.42,1.83,2.09,3.56-1.89,1.08-4.21-2-5.49.37-1,2,.25,4.21,1.15,6.17C6,39.05,10,42.23,15.31,44.47,9,46,8.67,47.36,12.83,52c3,3.33,6.93,5,12,6.54a25.09,25.09,0,0,1-11.57,6c-4,1-8.18,1.5-13.26,2.39C2.71,68.25,4.44,69.24,6.27,70c32.78,13.3,67-5.12,73.35-40,1.3-7.11,1.6-14,8.1-18.64.3-.21.31-.84.46-1.29C86.11,9.2,84.07,11.71,81.93,9.87Z"/></g></g></svg>