<svg xmlns="http://www.w3.org/2000/svg" viewBox="0 0 91.2 91.03"><defs><style>.cls-1{fill:#ff6f31;}.cls-2{fill:#fff;}</style></defs><g id="Layer_2" data-name="Layer 2"><g id="assets"><g id="social-icon-insta_orange"><path class="cls-1" d="M77.66.05Q45.46-.06,13.25,0C4.2.07.11,4.15,0,13.15,0,24,0,34.78,0,45.59,0,56.06,0,66.54,0,77c.05,9.77,4.18,13.93,14,14q31.46.1,62.92,0c9.54,0,14.15-4.6,14.17-14.07q.09-31.68,0-63.37C91.13,4.46,86.75.07,77.66.05Zm-6.08,10c8.5,0,9.39.89,9.36,9.26,0,7.71-1.16,8.74-9.55,8.73-8.59,0-9.17-.61-9.16-9.4C62.25,10.48,62.69,10.07,71.58,10.07ZM45.48,27.41c9.61-.13,18.15,8,18.41,17.43S55.68,62.78,45.65,62.93C36,63.07,27.49,55,27.29,45.54S35.52,27.53,45.48,27.41ZM81,74.68C81,78.6,79,80.35,75,80.31c-10-.11-20,0-30,0-9.66,0-19.31-.08-29,0-4.19.05-6.06-1.55-6-5.88.14-10.47.11-21,0-31.44,0-3.25.86-4.91,4.51-4.82,4.45.11,2.9,2.92,2.76,5.21-.71,11.14,3.59,19.94,13,25.73,10.12,6.19,20.74,6.09,30.71-.24C70.46,63,74.65,54.06,73.64,42.93c-.2-2.18-1-4.46,2.52-4.67,3-.18,4.86.54,4.84,4C80.94,53.06,81,63.87,81,74.68Z"/><path class="cls-2" d="M76.16,38.26c-3.49.21-2.72,2.49-2.52,4.67,1,11.13-3.18,20-12.51,25.95-10,6.33-20.59,6.43-30.71.24-9.45-5.79-13.75-14.59-13-25.73.14-2.29,1.69-5.1-2.76-5.21C11,38.09,10.08,39.75,10.11,43c.11,10.48.14,21,0,31.44-.06,4.33,1.81,5.93,6,5.88,9.66-.13,19.31,0,29,0,10,0,20-.07,30,0,4,0,5.91-1.71,5.92-5.63,0-10.81,0-21.62,0-32.43C81,38.8,79.11,38.08,76.16,38.26Z"/><path class="cls-2" d="M45.65,62.93c10-.15,18.51-8.56,18.24-18.09s-8.8-17.56-18.41-17.43c-10,.12-18.4,8.54-18.19,18.13S36,63.07,45.65,62.93Z"/><path class="cls-2" d="M71.39,28.06c8.39,0,9.52-1,9.55-8.73,0-8.37-.86-9.25-9.36-9.26-8.89,0-9.33.41-9.35,8.59C62.22,27.45,62.8,28.05,71.39,28.06Z"/></g></g></g></svg>