<svg xmlns="http://www.w3.org/2000/svg" viewBox="0 0 91.74 91.69"><defs><style>.cls-1{fill:#ff6f31;}.cls-2{fill:#fff;}</style></defs><g id="Layer_2" data-name="Layer 2"><g id="assets"><g id="social-icon-pinterest_orange"><path class="cls-1" d="M46.06,0C21-.09.07,20.55,0,45.54A46.31,46.31,0,0,0,45.56,91.69c24.71.24,46-20.8,46.18-45.64S71,.09,46.06,0ZM72.18,34.05c0,9.8-2.3,17.32-9,22.78-5.74,4.72-12.22,6-18.94,2-2.59-1.54-3.53-.75-4.08,1.79-1.14,5.22-2.62,10.33-5.55,14.87-.78,1.22-1.81,3-3.35,2.55s-1.21-2.54-1.2-4c0-8.06,2.06-15.79,4-23.52.91-3.57,1.57-7,.67-10.74a11.5,11.5,0,0,1,3.1-11.06,5.74,5.74,0,0,1,7.33-1c2.41,1.31,2.82,3.51,2.2,6-1,4-2,8.06-2.93,12.12-.59,2.62-1.25,5.5,1.64,7.18a8.47,8.47,0,0,0,9-.18c6.43-3.92,9.7-17.79,6.23-26-2.83-6.71-10.5-10.25-18.34-8.46C33.33,20.63,26.41,29.07,27,37.9a17.93,17.93,0,0,0,2.39,7c.9,1.75,1.08,3.74-.48,5.08-1.81,1.55-3.53,0-4.85-1.09C19.58,45.2,19,40,19.4,34.78c.76-10.34,8.19-18.88,18.43-21.86C49,9.67,61.88,13.1,68,21A20,20,0,0,1,72.18,34.05Z"/><path class="cls-2" d="M37.83,12.92c-10.24,3-17.67,11.52-18.43,21.86C19,40,19.58,45.2,24,48.9c1.32,1.1,3,2.64,4.85,1.09,1.56-1.34,1.38-3.33.48-5.08a17.93,17.93,0,0,1-2.39-7c-.56-8.83,6.36-17.27,16.08-19.49,7.84-1.79,15.51,1.75,18.34,8.46,3.47,8.2.2,22.07-6.23,26a8.47,8.47,0,0,1-9,.18c-2.89-1.68-2.23-4.56-1.64-7.18.91-4.06,1.93-8.08,2.93-12.12.62-2.52.21-4.72-2.2-6a5.74,5.74,0,0,0-7.33,1,11.5,11.5,0,0,0-3.1,11.06c.9,3.78.24,7.17-.67,10.74-2,7.73-4,15.46-4,23.52,0,1.44-.47,3.49,1.2,4s2.57-1.33,3.35-2.55c2.93-4.54,4.41-9.65,5.55-14.87.55-2.54,1.49-3.33,4.08-1.79,6.72,4,13.2,2.74,18.94-2,6.65-5.46,8.93-13,9-22.78A20,20,0,0,0,68,21C61.88,13.1,49,9.67,37.83,12.92Z"/></g></g></g></svg>