<svg xmlns="http://www.w3.org/2000/svg" viewBox="0 0 42.69 91.82"><defs><style>.cls-1{fill:#222;}</style></defs><g id="Layer_2" data-name="Layer 2"><g id="assets"><path id="social-icon-facebook_black" class="cls-1" d="M36,16c4.85.2,6.86-1.13,6.67-6.37-.39-11,.57-9.48-9.79-9.6-1.66,0-3.33,0-5,.1-9.82.61-14,4.24-15.79,14a36.71,36.71,0,0,0-.65,9.4c.4,4.92-1.17,7.24-6.36,6.5-3.58-.51-5.31,1.08-5,4.8a22.36,22.36,0,0,1,0,4.48c-.57,4.75.88,7.42,6.22,6.6,4-.61,5.22,1.39,5.08,5.18-.21,5.81-.06,11.63-.05,17.45,0,3.83-.07,7.65,0,11.47.26,13.41-2.33,11.5,12,11.8,3.92.09,5.23-1.38,5.18-5.24-.17-11.8,0-23.61-.11-35.41,0-3.68.91-5.44,5-5.34,8.56.2,7.18.93,8.58-7.68.24-1.47.2-3,.31-4.48.18-2.49-.89-3.73-3.46-3.67-2,.05-4,0-6,0-1.43-.06-3,.31-4-1.33C25.75,23.34,29.82,15.74,36,16Z"/></g></g></svg>