<svg xmlns="http://www.w3.org/2000/svg" viewBox="0 0 92.05 68.41"><defs><style>.cls-1{fill:#ff6f31;}.cls-2{fill:#fff;}</style></defs><g id="Layer_2" data-name="Layer 2"><g id="assets"><g id="social-icon-youtube_orange"><path class="cls-1" d="M75.43.15Q46.22-.16,17,.16C8,.25,1.56,6.4.78,15.3A231.34,231.34,0,0,0,.66,51.68c.76,10.77,7.2,16.55,17.93,16.67,9.15.1,18.3,0,27.46,0v0c9.65,0,19.31.15,29,0S91.74,61.22,91.9,51.6q.3-17.46,0-34.93C91.73,7.17,85,.26,75.43.15ZM60.85,36.27c-7.58,6-15.09,12.06-22.65,18.06C36.84,55.42,35,56.7,35,53.49c-.11-13.58-.05-27.16-.05-42.11C44.35,18.91,52.52,25.46,60.73,32,62.59,33.44,62.89,34.66,60.85,36.27Z"/><path class="cls-2" d="M60.73,32c-8.21-6.5-16.38-13-25.82-20.58,0,14.95-.06,28.53.05,42.11,0,3.21,1.88,1.93,3.24.84,7.56-6,15.07-12.08,22.65-18.06C62.89,34.66,62.59,33.44,60.73,32Z"/></g></g></g></svg>